<svg id="visual" viewBox="0 0 960 200" width="960" height="200" xmlns="http://www.w3.org/2000/svg" xmlns:xlink="http://www.w3.org/1999/xlink" version="1.1"><rect x="0" y="0" width="960" height="200" fill="#ffffff"></rect><path d="M0 97L22.8 100.2C45.7 103.3 91.3 109.7 137 107.3C182.7 105 228.3 94 274 93.2C319.7 92.3 365.3 101.7 411.2 107.7C457 113.7 503 116.3 548.8 116.7C594.7 117 640.3 115 686 109C731.7 103 777.3 93 823 92.7C868.7 92.3 914.3 101.7 937.2 106.3L960 111L960 0L937.2 0C914.3 0 868.7 0 823 0C777.3 0 731.7 0 686 0C640.3 0 594.7 0 548.8 0C503 0 457 0 411.2 0C365.3 0 319.7 0 274 0C228.3 0 182.7 0 137 0C91.3 0 45.7 0 22.8 0L0 0Z" fill="#ef4444"></path><path d="M0 68L22.8 68.3C45.7 68.7 91.3 69.3 137 72.5C182.7 75.7 228.3 81.3 274 84.2C319.7 87 365.3 87 411.2 81.5C457 76 503 65 548.8 63.8C594.7 62.7 640.3 71.3 686 73.2C731.7 75 777.3 70 823 66.2C868.7 62.3 914.3 59.7 937.2 58.3L960 57L960 0L937.2 0C914.3 0 868.7 0 823 0C777.3 0 731.7 0 686 0C640.3 0 594.7 0 548.8 0C503 0 457 0 411.2 0C365.3 0 319.7 0 274 0C228.3 0 182.7 0 137 0C91.3 0 45.7 0 22.8 0L0 0Z" fill="#d93a39"></path><path d="M0 62L22.8 59.5C45.7 57 91.3 52 137 51.7C182.7 51.3 228.3 55.7 274 54.7C319.7 53.7 365.3 47.3 411.2 46.3C457 45.3 503 49.7 548.8 52.2C594.7 54.7 640.3 55.3 686 58.8C731.7 62.3 777.3 68.7 823 66C868.7 63.3 914.3 51.7 937.2 45.8L960 40L960 0L937.2 0C914.3 0 868.7 0 823 0C777.3 0 731.7 0 686 0C640.3 0 594.7 0 548.8 0C503 0 457 0 411.2 0C365.3 0 319.7 0 274 0C228.3 0 182.7 0 137 0C91.3 0 45.7 0 22.8 0L0 0Z" fill="#c3302f"></path><path d="M0 24L22.8 29.5C45.7 35 91.3 46 137 48.3C182.7 50.7 228.3 44.3 274 40.3C319.7 36.3 365.3 34.7 411.2 34.7C457 34.7 503 36.3 548.8 40.3C594.7 44.3 640.3 50.7 686 49.8C731.7 49 777.3 41 823 38.7C868.7 36.3 914.3 39.7 937.2 41.3L960 43L960 0L937.2 0C914.3 0 868.7 0 823 0C777.3 0 731.7 0 686 0C640.3 0 594.7 0 548.8 0C503 0 457 0 411.2 0C365.3 0 319.7 0 274 0C228.3 0 182.7 0 137 0C91.3 0 45.7 0 22.8 0L0 0Z" fill="#ae2625"></path><path d="M0 27L22.8 24.3C45.7 21.7 91.3 16.3 137 15.2C182.7 14 228.3 17 274 19.7C319.7 22.3 365.3 24.7 411.2 26.7C457 28.7 503 30.3 548.8 30.2C594.7 30 640.3 28 686 26.8C731.7 25.7 777.3 25.3 823 25.7C868.7 26 914.3 27 937.2 27.5L960 28L960 0L937.2 0C914.3 0 868.7 0 823 0C777.3 0 731.7 0 686 0C640.3 0 594.7 0 548.8 0C503 0 457 0 411.2 0C365.3 0 319.7 0 274 0C228.3 0 182.7 0 137 0C91.3 0 45.7 0 22.8 0L0 0Z" fill="#991b1b"></path></svg>